<svg width="78" height="104" viewBox="0 0 78 104" fill="none" xmlns="http://www.w3.org/2000/svg">
<path d="M20.1373 39.7313L8.58496 38.7803" stroke="white" stroke-opacity="0.5" stroke-width="3.87457" stroke-linecap="round"/>
<path d="M44.2609 17.4879L45.2119 5.93555" stroke="white" stroke-opacity="0.5" stroke-width="3.87457" stroke-linecap="round"/>
<path d="M25.2225 21.31L22.4648 18.0576" stroke="white" stroke-opacity="0.5" stroke-width="3.87457" stroke-linecap="round"/>
<path d="M52.6816 57.3174L76.7703 85.7281" stroke="#FFDB8F" stroke-width="3.87457" stroke-linecap="square" stroke-linejoin="round"/>
<path d="M55.1992 55.1836L79.2879 83.5943" stroke="#543D0F" stroke-width="3.87457" stroke-linecap="square" stroke-linejoin="round"/>
<path d="M34.0583 27.7286L43.9957 32.0143C45.3683 32.6199 47.5392 32.4766 48.8248 31.7115L56.4159 27.1892C61.272 24.2997 64.9085 26.5609 64.4462 32.2252L63.6964 41.8167C63.5693 43.4411 64.5327 45.549 65.837 46.5381L72.7847 51.7335C78.2802 55.8493 77.2667 60.1031 70.5245 61.2335L61.1414 62.7972C59.4463 63.0786 57.5916 64.6511 57.0159 66.295L53.9386 75.2962C51.7418 81.745 47.3407 82.0457 44.1969 75.9723L40.2078 68.2683C39.4454 66.8199 37.5234 65.5247 35.9002 65.3843L26.3151 64.5556C20.6723 64.0676 19.0153 60.128 22.6603 55.8096L28.3631 49.0604C29.3072 47.935 29.8035 45.8169 29.4308 44.3635L26.8279 33.8591C25.4258 28.1505 28.6763 25.3944 34.0583 27.7286Z" fill="#FFDB8F" stroke="#FFDB8F" stroke-width="3.87457" stroke-linecap="round" stroke-linejoin="round"/>
<path d="M37.0043 25.2305L46.7584 29.6716C48.106 30.2985 50.2102 30.2116 51.4396 29.4943L58.6982 25.2538C63.3418 22.5445 66.9283 24.8481 66.6192 30.3825L66.1278 39.7549C66.0444 41.3423 67.0318 43.4299 68.3225 44.4304L75.1962 49.6886C80.6334 53.8538 79.7543 57.9936 73.2361 58.9341L64.1645 60.2337C62.5257 60.4674 60.7637 61.9613 60.2453 63.5566L57.4795 72.2937C55.5056 78.5535 51.2399 78.7393 48.0379 72.7154L43.9748 65.0742C43.1988 63.6372 41.3008 62.3217 39.7213 62.1442L30.3946 61.0964C24.9039 60.4795 23.198 56.5813 26.6305 52.4432L32.0009 45.9758C32.8898 44.8972 33.3194 42.8356 32.9217 41.4034L30.1354 31.0544C28.6333 25.4306 31.7213 22.8124 37.0043 25.2305Z" fill="#F8AE14" stroke="#543D0F" stroke-width="3.87457" stroke-linecap="round" stroke-linejoin="round"/>
</svg>
