<svg width="74" height="74" viewBox="0 0 74 74" fill="none" xmlns="http://www.w3.org/2000/svg">
<g clip-path="url(#clip0_1_2369)">
<path d="M29.5 28.002C27.669 28.0074 26.6557 28.0512 25.8231 28.4007C24.6568 28.8903 23.707 29.7945 23.1522 30.9436C22.6993 31.8815 22.6251 33.0832 22.4769 35.4865L22.2447 39.2526C21.8761 45.2292 21.6918 48.2175 23.4455 50.1094C25.1993 52.0012 28.1538 52.0012 34.0628 52.0012H39.9371C45.8462 52.0012 48.8008 52.0012 50.5544 50.1094C52.3082 48.2175 52.1239 45.2292 51.7553 39.2526L51.523 35.4865C51.3748 33.0832 51.3007 31.8815 50.8478 30.9436C50.293 29.7945 49.3432 28.8903 48.1769 28.4007C47.3443 28.0512 46.3309 28.0074 44.5 28.002" stroke="white" stroke-width="1.5" stroke-linecap="round"/>
<path d="M44.5 29.5L43.1713 26.1781C42.598 24.7449 42.0991 23.1192 40.6249 22.3893C39.8386 22 38.8924 22 37 22C35.1076 22 34.1614 22 33.375 22.3893C31.9009 23.1192 31.402 24.7449 30.8287 26.1781L29.5 29.5" stroke="white" stroke-width="1.5" stroke-linecap="round" stroke-linejoin="round"/>
<path d="M42.25 40C42.25 42.8995 39.8995 45.25 37 45.25C34.1005 45.25 31.75 42.8995 31.75 40C31.75 37.1005 34.1005 34.75 37 34.75C39.8995 34.75 42.25 37.1005 42.25 40Z" stroke="white" stroke-width="1.5"/>
<path d="M36.9995 28H37.013" stroke="white" stroke-width="2" stroke-linecap="round" stroke-linejoin="round"/>
</g>
<rect x="0.5" y="0.5" width="73" height="73" rx="36.5" stroke="white"/>
<defs>
<clipPath id="clip0_1_2369">
<rect width="74" height="74" rx="37" fill="white"/>
</clipPath>
</defs>
</svg>
