<svg width="29" height="30" viewBox="0 0 29 30" fill="none" xmlns="http://www.w3.org/2000/svg">
<g clip-path="url(#clip0_4118_670)">
<rect x="1.5" y="2" width="26" height="26" rx="13" fill="#60A9FE"/>
<path d="M13.6875 18.25V28" stroke="#FFDB8F" stroke-linecap="round" stroke-linejoin="round"/>
<path d="M14.5 18.25V28" stroke="#543D0F" stroke-linecap="round" stroke-linejoin="round"/>
<path d="M15.0912 8.0484L16.5211 10.9317C16.716 11.3331 17.236 11.7181 17.6747 11.7918L20.2663 12.2259C21.9235 12.5044 22.3135 13.7167 21.1193 14.9126L19.1046 16.9441C18.7633 17.2881 18.5764 17.9515 18.6821 18.4267L19.2588 20.9414C19.7138 22.9319 18.6658 23.7018 16.9191 22.6616L14.49 21.2117C14.0514 20.9495 13.3282 20.9495 12.8815 21.2117L10.4523 22.6616C8.71378 23.7018 7.65765 22.9236 8.1126 20.9414L8.68941 18.4267C8.79503 17.9515 8.60817 17.2881 8.26696 16.9441L6.25218 14.9126C5.06606 13.7167 5.4479 12.5044 7.10521 12.2259L9.6968 11.7918C10.1274 11.7181 10.6473 11.3331 10.8423 10.9317L12.2721 8.0484C13.052 6.48387 14.3194 6.48387 15.0912 8.0484Z" fill="#FFDB8F" stroke="#FFDB8F" stroke-linecap="round" stroke-linejoin="round"/>
<path d="M16.2398 8.0484L17.5982 10.9317C17.7833 11.3331 18.2773 11.7181 18.6941 11.7918L21.1561 12.2259C22.7305 12.5044 23.101 13.7167 21.9665 14.9126L20.0525 16.9441C19.7283 17.2881 19.5507 17.9515 19.6511 18.4267L20.199 20.9414C20.6312 22.9319 19.6357 23.7018 17.9763 22.6616L15.6686 21.2117C15.2519 20.9495 14.565 20.9495 14.1406 21.2117L11.8328 22.6616C10.1812 23.7018 9.1779 22.9236 9.61009 20.9414L10.1581 18.4267C10.2584 17.9515 10.0809 17.2881 9.75674 16.9441L7.84269 14.9126C6.71589 13.7167 7.07863 12.5044 8.65307 12.2259L11.1151 11.7918C11.5241 11.7181 12.0181 11.3331 12.2033 10.9317L13.5616 8.0484C14.3025 6.48387 15.5065 6.48387 16.2398 8.0484Z" fill="#F8AE14" stroke="#543D0F" stroke-linecap="round" stroke-linejoin="round"/>
</g>
<rect x="0.75" y="1.25" width="27.5" height="27.5" rx="13.75" stroke="#5A5A5A" stroke-width="1.5"/>
<defs>
<clipPath id="clip0_4118_670">
<rect x="1.5" y="2" width="26" height="26" rx="13" fill="white"/>
</clipPath>
</defs>
</svg>
