<svg width="33" height="32" viewBox="0 0 33 32" fill="none" xmlns="http://www.w3.org/2000/svg">
<g clip-path="url(#clip0_1_3712)">
<rect x="0.5" width="32" height="32" rx="16" fill="#60A9FE"/>
<path d="M10.5 7.5L7.5 4.5" stroke="white" stroke-opacity="0.5" stroke-linecap="round"/>
<path d="M22.5 7L25.5 4" stroke="white" stroke-opacity="0.5" stroke-linecap="round"/>
<path d="M16.2803 3.56073V2" stroke="white" stroke-opacity="0.5" stroke-linecap="round"/>
<path d="M15.5 20V32" stroke="#FFDB8F" stroke-linecap="round" stroke-linejoin="round"/>
<path d="M16.5 20V32" stroke="#543D0F" stroke-linecap="round" stroke-linejoin="round"/>
<path d="M17.2277 7.44418L18.9875 10.9929C19.2273 11.4869 19.8673 11.9607 20.4073 12.0514L23.597 12.5857C25.6367 12.9285 26.1167 14.4206 24.6468 15.8925L22.1672 18.3927C21.7472 18.8161 21.5172 19.6326 21.6472 20.2175L22.357 23.3125C22.917 25.7623 21.6272 26.71 19.4773 25.4296L16.4877 23.6451C15.9478 23.3225 15.0578 23.3225 14.508 23.6451L11.5183 25.4296C9.3785 26.71 8.07865 25.7521 8.63858 23.3125L9.3485 20.2175C9.4785 19.6326 9.24852 18.8161 8.82857 18.3927L6.34883 15.8925C4.889 14.4206 5.35895 12.9285 7.39872 12.5857L10.5884 12.0514C11.1183 11.9607 11.7582 11.4869 11.9982 10.9929L13.758 7.44418C14.7178 5.51861 16.2777 5.51861 17.2277 7.44418Z" fill="#FFDB8F" stroke="#FFDB8F" stroke-linecap="round" stroke-linejoin="round"/>
<path d="M18.6413 7.44418L20.3131 10.9929C20.541 11.4869 21.149 11.9607 21.662 12.0514L24.6922 12.5857C26.6298 12.9285 27.0858 14.4206 25.6895 15.8925L23.3338 18.3927C22.9348 18.8161 22.7163 19.6326 22.8398 20.2175L23.5142 23.3125C24.0462 25.7623 22.8208 26.71 20.7785 25.4296L17.9383 23.6451C17.4254 23.3225 16.5799 23.3225 16.0576 23.6451L13.2174 25.4296C11.1846 26.71 9.94972 25.7521 10.4817 23.3125L11.1561 20.2175C11.2796 19.6326 11.0611 18.8161 10.6621 18.3927L8.30639 15.8925C6.91955 14.4206 7.366 12.9285 9.30378 12.5857L12.3339 12.0514C12.8374 11.9607 13.4453 11.4869 13.6733 10.9929L15.3451 7.44418C16.2569 5.51861 17.7388 5.51861 18.6413 7.44418Z" fill="#F8AE14" stroke="#543D0F" stroke-linecap="round" stroke-linejoin="round"/>
</g>
<defs>
<clipPath id="clip0_1_3712">
<rect x="0.5" width="32" height="32" rx="16" fill="white"/>
</clipPath>
</defs>
</svg>
