<svg width="24" height="24" viewBox="0 0 24 24" fill="none" xmlns="http://www.w3.org/2000/svg">
<g clip-path="url(#clip0_1_6039)">
<path d="M20.165 0.794922C21.896 0.662894 23.338 2.10398 23.2061 3.83496L23.0693 5.61426C22.7446 9.86495 22.7446 14.135 23.0693 18.3857L23.2061 20.165C23.338 21.896 21.896 23.338 20.165 23.2061L18.3857 23.0693C14.135 22.7446 9.86495 22.7446 5.61426 23.0693L3.83496 23.2061C2.10399 23.338 0.662898 21.896 0.794922 20.165L0.930664 18.3857C1.25537 14.135 1.25537 9.86495 0.930664 5.61426L0.794922 3.83496C0.662893 2.10395 2.10395 0.662896 3.83496 0.794922L5.61426 0.930664C9.86495 1.25537 14.135 1.25537 18.3857 0.930664L20.165 0.794922Z" stroke="white"/>
</g>
<defs>
<clipPath id="clip0_1_6039">
<rect width="24" height="24" fill="white"/>
</clipPath>
</defs>
</svg>
