<svg width="16" height="16" viewBox="0 0 16 16" fill="none" xmlns="http://www.w3.org/2000/svg">
<path d="M5.58343 2C5.44082 2.05329 5.30057 2.11141 5.16288 2.17417M13.8114 10.8674C13.8795 10.7199 13.9423 10.5695 13.9996 10.4163M12.3321 12.9098C12.4466 12.8029 12.5573 12.6921 12.6638 12.5773M10.1789 14.2482C10.3083 14.1994 10.4357 14.1467 10.561 14.0901M8.1036 14.6626C7.94967 14.6679 7.79467 14.6679 7.64067 14.6626M5.19114 14.0936C5.31167 14.1478 5.43415 14.1985 5.55843 14.2455M3.11463 12.6139C3.20576 12.7105 3.29979 12.8043 3.3966 12.8952M1.75473 10.443C1.80465 10.5748 1.85871 10.7046 1.91675 10.8322M1.33625 8.33687C1.33192 8.19813 1.33193 8.05853 1.33625 7.9196M1.7499 5.82476C1.79894 5.69443 1.85203 5.56609 1.909 5.43987M3.10361 3.65282C3.20005 3.55009 3.29977 3.45049 3.4026 3.35416" stroke="#5A5A5A" stroke-linecap="round" stroke-linejoin="round"/>
<path d="M9 8C9 8.55227 8.55227 9 8 9C7.44773 9 7 8.55227 7 8C7 7.44773 7.44773 7 8 7M9 8C9 7.44773 8.55227 7 8 7M9 8H10.6667M8 7V4" stroke="#5A5A5A" stroke-linecap="round"/>
<path d="M14.6667 7.99968C14.6667 4.31778 11.6819 1.33301 8 1.33301" stroke="#5A5A5A" stroke-linecap="round"/>
</svg>
