<svg width="27" height="26" viewBox="0 0 27 26" fill="none" xmlns="http://www.w3.org/2000/svg">
<path d="M19.2493 2.16699V4.33366M13.8327 2.16699V4.33366M8.41602 2.16699V4.33366" stroke="#5A5A5A" stroke-width="1.5" stroke-linecap="round" stroke-linejoin="round"/>
<path d="M4.625 10.8333C4.625 7.25852 4.625 5.4711 5.73556 4.36056C6.8461 3.25 8.63352 3.25 12.2083 3.25H15.4583C19.0331 3.25 20.8205 3.25 21.9311 4.36056C23.0417 5.4711 23.0417 7.25852 23.0417 10.8333V16.25C23.0417 19.8248 23.0417 21.6122 21.9311 22.7228C20.8205 23.8333 19.0331 23.8333 15.4583 23.8333H12.2083C8.63352 23.8333 6.8461 23.8333 5.73556 22.7228C4.625 21.6122 4.625 19.8248 4.625 16.25V10.8333Z" fill="white" fill-opacity="0.2" stroke="#5A5A5A" stroke-width="1.5" stroke-linecap="round" stroke-linejoin="round"/>
<path d="M15.458 17.333H19.2497" stroke="#5A5A5A" stroke-linecap="round"/>
<path d="M15.458 9.75H19.2497" stroke="#5A5A5A" stroke-linecap="round"/>
<path d="M8.41602 10.8337C8.41602 10.8337 8.95768 10.8337 9.49935 11.917C9.49935 11.917 11.2199 9.20866 12.7493 8.66699" stroke="#5A5A5A" stroke-linecap="round" stroke-linejoin="round"/>
<path d="M8.41602 18.4167C8.41602 18.4167 8.95768 18.4167 9.49935 19.5C9.49935 19.5 11.2199 16.7917 12.7493 16.25" stroke="#5A5A5A" stroke-linecap="round" stroke-linejoin="round"/>
</svg>
