<svg width="24" height="24" viewBox="0 0 24 24" fill="none" xmlns="http://www.w3.org/2000/svg">
<path d="M6.51086 2C5.20659 2.12853 4.32865 2.41902 3.67337 3.07554C2.49805 4.25309 2.49805 6.14832 2.49805 9.93879V13.9592C2.49805 17.7497 2.49805 19.6449 3.67337 20.8225C4.8487 22 6.74035 22 10.5237 22H12.5301C16.3134 22 18.2051 22 19.3804 20.8225C20.4471 19.7538 20.5457 18.1056 20.5548 14.9766" stroke="white" stroke-width="1.5" stroke-linecap="round" stroke-linejoin="round"/>
<path d="M10.5232 6.99989L11.5264 10.4999C12.0866 11.6099 12.7895 11.9003 14.5358 11.9999C15.925 11.9655 16.7315 11.8019 17.4186 11.2039C17.8877 10.7956 18.1002 10.181 18.2026 9.56865L18.5485 7.49989M21.0563 5.49989V10.4999M8.59785 4.93235C10.1847 3.61617 11.5992 2.90912 14.5319 2.13097C14.8622 2.04332 15.2116 2.04497 15.5411 2.13561C18.1376 2.84984 19.5389 3.48352 21.4171 4.89342C21.4976 4.95385 21.5211 5.06532 21.4647 5.14854C20.8526 6.05096 19.4828 6.78129 16.1253 8.08375C15.4273 8.35453 14.6495 8.34826 13.9537 8.07186C10.3778 6.65131 8.7343 5.89247 8.53476 5.10288C8.51868 5.03924 8.54724 4.97433 8.59785 4.93235Z" stroke="white" stroke-width="1.5" stroke-linecap="round" stroke-linejoin="round"/>
</svg>
