<svg width="72" height="72" viewBox="0 0 72 72" fill="none" xmlns="http://www.w3.org/2000/svg">
<path d="M38.9297 20.8105C38.9297 27.3781 33.6055 32.7022 27.0381 32.7022C20.4705 32.7022 15.1465 27.3781 15.1465 20.8105C15.1465 14.243 20.4705 8.91895 27.0381 8.91895C33.6055 8.91895 38.9297 14.243 38.9297 20.8105Z" stroke="white" stroke-width="4.45935"/>
<path d="M44.8755 32.7022C51.4429 32.7022 56.7671 27.3781 56.7671 20.8105C56.7671 14.243 51.4429 8.91895 44.8755 8.91895" stroke="white" stroke-width="4.45935" stroke-linecap="round" stroke-linejoin="round"/>
<path d="M32.9836 41.6206H21.092C12.8826 41.6206 6.22754 48.2757 6.22754 56.4851C6.22754 59.769 8.88956 62.4309 12.1733 62.4309H41.9023C45.1862 62.4309 47.8481 59.769 47.8481 56.4851C47.8481 48.2757 41.193 41.6206 32.9836 41.6206Z" stroke="white" stroke-width="4.45935" stroke-linejoin="round"/>
<path d="M50.8213 41.6206C59.0307 41.6206 65.6858 48.2757 65.6858 56.4851C65.6858 59.769 63.0239 62.4309 59.74 62.4309H55.2806" stroke="white" stroke-width="4.45935" stroke-linecap="round" stroke-linejoin="round"/>
</svg>
