<svg width="29" height="29" viewBox="0 0 29 29" fill="none" xmlns="http://www.w3.org/2000/svg">
<path d="M3.26465 14.5002C3.26465 9.20373 3.26465 6.55548 4.91006 4.91006C6.55548 3.26465 9.20373 3.26465 14.5002 3.26465C19.7967 3.26465 22.445 3.26465 24.0904 4.91006C25.7358 6.55548 25.7358 9.20373 25.7358 14.5002C25.7358 19.7967 25.7358 22.445 24.0904 24.0904C22.445 25.7358 19.7967 25.7358 14.5002 25.7358C9.20373 25.7358 6.55548 25.7358 4.91006 24.0904C3.26465 22.445 3.26465 19.7967 3.26465 14.5002Z" stroke="#5A5A5A" stroke-width="1.18269"/>
<path d="M14.7862 20.4135V14.5001C14.7862 13.9426 14.7862 13.6638 14.6129 13.4905C14.4398 13.3174 14.161 13.3174 13.6035 13.3174" stroke="#5A5A5A" stroke-width="1.18269" stroke-linecap="round" stroke-linejoin="round"/>
<path d="M14.4902 9.76953H14.5009" stroke="#5A5A5A" stroke-width="1.57692" stroke-linecap="round" stroke-linejoin="round"/>
</svg>
