<svg width="30" height="29" viewBox="0 0 30 29" fill="none" xmlns="http://www.w3.org/2000/svg">
<path d="M3.17285 2.55762H19.7305C21.9606 2.55762 23.0757 2.55762 23.7685 3.25043C24.4613 3.94322 24.4613 5.05828 24.4613 7.28839V14.3845C24.4613 16.6146 24.4613 17.7297 23.7685 18.4225C23.0757 19.1153 21.9606 19.1153 19.7305 19.1153H11.4517" stroke="#F8AE14" stroke-width="1.18269" stroke-linecap="round" stroke-linejoin="round"/>
<path d="M12.6348 7.87988H19.7309" stroke="#F8AE14" stroke-width="1.18269" stroke-linecap="round" stroke-linejoin="round"/>
<path d="M3.17285 20.2983V15.5675C3.17285 14.4525 3.17285 13.895 3.51925 13.5486C3.86566 13.2021 4.42318 13.2021 5.53824 13.2021H7.90362M3.17285 20.2983H7.90362M3.17285 20.2983V26.2118M7.90362 13.2021V20.2983M7.90362 13.2021H11.4517H14.9998M7.90362 20.2983V26.2118" stroke="#F8AE14" stroke-width="1.18269" stroke-linecap="round" stroke-linejoin="round"/>
<path d="M7.90362 7.88003C7.90362 9.1864 6.8446 10.2454 5.53824 10.2454C4.23187 10.2454 3.17285 9.1864 3.17285 7.88003C3.17285 6.57367 4.23187 5.51465 5.53824 5.51465C6.8446 5.51465 7.90362 6.57367 7.90362 7.88003Z" stroke="#F8AE14" stroke-width="1.18269"/>
<path d="M14.0098 24.0391H21.1059" stroke="#F8AE14" stroke-width="1.18269" stroke-linecap="round"/>
</svg>
