<svg width="24" height="25" viewBox="0 0 24 25" fill="none" xmlns="http://www.w3.org/2000/svg">
<path d="M12 16.5508V14.5508" stroke="white" stroke-width="1.5" stroke-linecap="round"/>
<path d="M4.26781 18.8955C4.49269 20.5658 5.87613 21.8743 7.55966 21.9517C8.97627 22.0168 10.4153 22.0508 12 22.0508C13.5847 22.0508 15.0237 22.0168 16.4403 21.9517C18.1239 21.8743 19.5073 20.5658 19.7322 18.8955C19.879 17.8055 20 16.6884 20 15.5508C20 14.4132 19.879 13.2961 19.7322 12.2061C19.5073 10.5358 18.1239 9.22727 16.4403 9.14987C15.0237 9.08475 13.5847 9.05078 12 9.05078C10.4153 9.05078 8.97627 9.08475 7.55966 9.14987C5.87613 9.22727 4.49269 10.5358 4.26781 12.2061C4.12105 13.2961 4 14.4132 4 15.5508C4 16.6884 4.12105 17.8055 4.26781 18.8955Z" stroke="white" stroke-width="1.5"/>
<path d="M7.5 9.05078V6.55078C7.5 4.0655 9.51472 2.05078 12 2.05078C13.9593 2.05078 15.5 3.55078 16 5.05078" stroke="white" stroke-width="1.5" stroke-linecap="round" stroke-linejoin="round"/>
</svg>
