<svg width="79" height="79" viewBox="0 0 79 79" fill="none" xmlns="http://www.w3.org/2000/svg">
<path d="M14.2341 62.0305C14.9743 67.5285 19.5281 71.8357 25.0698 72.0905C29.7328 72.3047 34.4696 72.4167 39.6859 72.4167C44.9022 72.4167 49.6389 72.3047 54.3019 72.0905C59.8437 71.8357 64.3974 67.5285 65.1377 62.0305C65.6209 58.4426 66.0192 54.7654 66.0192 51.0208C66.0192 47.2762 65.6209 43.5991 65.1377 40.0112C64.3974 34.5131 59.8437 30.2059 54.3019 29.9512C49.6389 29.7368 44.9022 29.625 39.6859 29.625C34.4696 29.625 29.7328 29.7368 25.0698 29.9512C19.5281 30.2059 14.9743 34.5131 14.2341 40.0112C13.751 43.5991 13.3525 47.2762 13.3525 51.0208C13.3525 54.7654 13.751 58.4426 14.2341 62.0305Z" stroke="white" stroke-width="2"/>
<path d="M24.4785 29.6247V21.3955C24.4785 13.2148 31.1103 6.58301 39.291 6.58301C47.4718 6.58301 54.1035 13.2148 54.1035 21.3955" stroke="white" stroke-width="2" stroke-linecap="round" stroke-linejoin="round"/>
<path d="M40.0566 51.0205H40.0876" stroke="white" stroke-width="2" stroke-linecap="round" stroke-linejoin="round"/>
</svg>
