<svg width="25" height="24" viewBox="0 0 25 24" fill="none" xmlns="http://www.w3.org/2000/svg">
<path d="M19.6918 9.44118L17.7265 7.46899C16.3104 6.04799 15.7554 5.28357 14.9886 5.55381C14.0325 5.89077 14.3472 8.01692 14.3472 8.73471C12.8607 8.73471 11.3152 8.60259 9.84985 8.87787C5.01259 9.78664 3.5 13.7153 3.5 18C4.8691 17.0302 6.23683 15.997 7.88233 15.5476C9.93637 14.9865 12.2304 15.2542 14.3472 15.2542C14.3472 15.972 14.0325 18.0982 14.9886 18.4351C15.8575 18.7413 16.3104 17.9409 17.7265 16.5199L19.6918 14.5477C20.8973 13.338 21.5 12.7332 21.5 11.9945C21.5 11.2558 20.8973 10.6509 19.6918 9.44118Z" stroke="white" stroke-width="1.5" stroke-linecap="round" stroke-linejoin="round"/>
</svg>
