<svg width="27" height="26" viewBox="0 0 27 26" fill="none" xmlns="http://www.w3.org/2000/svg">
<path d="M7.6257 16.7721C6.09304 17.6847 2.07448 19.5481 4.52205 21.88C5.71767 23.019 7.04928 23.8337 8.72345 23.8337H18.2765C19.9507 23.8337 21.2823 23.019 22.4779 21.88C24.9255 19.5481 20.907 17.6847 19.3743 16.7721C15.7802 14.632 11.2198 14.632 7.6257 16.7721Z" fill="white" fill-opacity="0.2" stroke="#5A5A5A" stroke-width="1.5" stroke-linecap="round" stroke-linejoin="round"/>
<path d="M18.375 7.04199C18.375 9.73438 16.1924 11.917 13.5 11.917C10.8076 11.917 8.625 9.73438 8.625 7.04199C8.625 4.34961 10.8076 2.16699 13.5 2.16699C16.1924 2.16699 18.375 4.34961 18.375 7.04199Z" fill="white" fill-opacity="0.2" stroke="#5A5A5A" stroke-width="1.5"/>
</svg>
