<svg width="194" height="62" viewBox="0 0 194 62" fill="none" xmlns="http://www.w3.org/2000/svg">
<rect x="186" y="40" width="8" height="8" rx="4" fill="white"/>
<path d="M169.809 47.9995V20.6098C169.809 17.1704 173.245 14.7904 176.465 15.9995V21.8235C177.574 20.5008 178.939 17.0235 180.561 16.2555C182.182 15.4875 183.931 15.1035 185.809 15.1035C187.003 15.1035 188.187 15.2635 189.361 15.5835L186.705 22.3035C185.873 21.9835 185.041 21.8235 184.209 21.8235C182.801 21.8235 181.51 22.1755 180.337 22.8795C179.163 23.5622 178.225 24.4902 177.521 25.6635C176.817 26.8368 176.465 28.1382 176.465 29.5675V41.3435C176.465 45.0195 173.485 47.9995 169.809 47.9995Z" fill="white"/>
<path d="M152.33 47.728C149.386 47.728 146.698 46.9707 144.266 45.456C141.855 43.9413 139.925 41.9147 138.474 39.376C137.045 36.816 136.33 33.9893 136.33 30.896C136.33 28.5493 136.746 26.3627 137.578 24.336C138.41 22.288 139.551 20.496 141.002 18.96C142.474 17.4027 144.181 16.1867 146.122 15.312C148.063 14.4373 150.133 14 152.33 14C154.783 14 157.034 14.512 159.082 15.536C161.13 16.5387 162.879 17.936 164.33 19.728C165.781 21.4987 166.847 23.5467 167.53 25.872C168.731 29.925 164.932 33.232 160.704 33.232H143.466C143.743 34.704 144.277 36.0373 145.066 37.232C145.877 38.4053 146.901 39.3333 148.138 40.016C149.397 40.6987 150.794 41.0507 152.33 41.072C153.951 41.072 155.423 40.6667 156.746 39.856C158.09 39.0453 159.189 37.9253 160.042 36.496C163.537 37.3077 165.413 41.2248 162.757 43.6381C162.21 44.1352 161.625 44.6025 161.002 45.04C158.421 46.832 155.53 47.728 152.33 47.728ZM143.242 28.144H156.906C159.291 28.144 161.163 25.9314 159.786 23.984C158.933 22.7253 157.855 21.7333 156.554 21.008C155.274 20.2613 153.866 19.888 152.33 19.888C150.815 19.888 149.407 20.2507 148.106 20.976C146.826 21.7013 145.759 22.6933 144.906 23.952C144.074 25.1893 143.519 26.5867 143.242 28.144Z" fill="white"/>
<path d="M132.988 27.936V48C129.311 48 126.332 45.02 126.332 41.344V29.568C126.332 28.1387 125.98 26.8373 125.276 25.664C124.593 24.4907 123.665 23.5627 122.492 22.88C121.34 22.176 120.038 21.824 118.588 21.824C117.18 21.824 115.889 22.176 114.716 22.88C113.542 23.5627 112.604 24.4907 111.9 25.664C111.196 26.8373 110.844 28.1387 110.844 29.568V41.344C110.844 45.02 107.864 48 104.188 48V6.65601C104.188 2.98 107.167 0 110.844 0V19.392C111.953 18.0693 113.318 17.024 114.94 16.256C116.561 15.488 118.31 15.104 120.188 15.104C122.556 15.104 124.71 15.68 126.652 16.832C128.593 17.984 130.129 19.5307 131.26 21.472C132.412 23.4133 132.988 25.568 132.988 27.936Z" fill="white"/>
<path d="M86.5998 47.696C84.9144 47.5893 83.2718 47.248 81.6718 46.672C80.0718 46.096 78.6638 45.3173 77.4478 44.336C76.2531 43.3333 75.3571 42.16 74.7598 40.816L78.3631 39.2688C79.5153 38.7741 80.8906 39.2893 81.8638 40.08C82.5678 40.6347 83.3891 41.0933 84.3278 41.456C85.2664 41.7973 86.2478 41.968 87.2718 41.968C88.2744 41.968 89.2024 41.8293 90.0558 41.552C90.9304 41.2533 91.6451 40.8053 92.1998 40.208C92.7544 39.6107 93.0318 38.896 93.0318 38.064C93.0318 37.1253 92.7118 36.4 92.0718 35.888C91.4531 35.3547 90.6744 34.9493 89.7358 34.672C88.7971 34.3947 87.8584 34.128 86.9198 33.872C84.8291 33.4027 82.9091 32.7627 81.1598 31.952C79.4318 31.12 78.0558 30.064 77.0318 28.784C76.0078 27.4827 75.4958 25.8933 75.4958 24.016C75.4958 21.968 76.0504 20.1973 77.1598 18.704C78.2691 17.1893 79.7198 16.0267 81.5118 15.216C83.3251 14.4053 85.2558 14 87.3038 14C89.8638 14 92.2104 14.544 94.3438 15.632C96.4771 16.72 98.1091 18.2133 99.2398 20.112L95.909 22.0902C94.8561 22.7157 93.4761 22.2851 92.5198 21.52C91.8798 21.008 91.1544 20.6027 90.3438 20.304C89.5331 19.984 88.6904 19.8027 87.8158 19.76C86.7278 19.7173 85.7144 19.8453 84.7758 20.144C83.8584 20.4213 83.1224 20.8693 82.5678 21.488C82.0131 22.1067 81.7358 22.896 81.7358 23.856C81.7358 24.7947 82.0664 25.4987 82.7278 25.968C83.3891 26.416 84.2211 26.7787 85.2238 27.056C86.2478 27.3333 87.2931 27.6427 88.3598 27.984C90.2584 28.5813 92.0398 29.3173 93.7038 30.192C95.3678 31.0453 96.7118 32.1013 97.7358 33.36C98.7598 34.6187 99.2504 36.1547 99.2078 37.968C99.2078 39.9733 98.5998 41.7333 97.3838 43.248C96.1891 44.7627 94.6318 45.9147 92.7118 46.704C90.7918 47.4933 88.7544 47.824 86.5998 47.696Z" fill="white"/>
<path d="M71.082 47H67.8828C65.9689 47 64.4123 45.4578 64.3945 43.5439C63.3065 44.8666 61.9514 45.9117 60.3301 46.6797C58.7088 47.4477 56.9702 47.832 55.1143 47.832C52.7463 47.832 50.5917 47.2555 48.6504 46.1035C46.7091 44.9515 45.1617 43.4052 44.0098 41.4639C42.8579 39.5226 42.2822 37.3679 42.2822 35V21.6562C42.2822 17.9802 45.2625 15 48.9385 15V33.3682C48.9385 34.7974 49.2902 36.0992 49.9941 37.2725C50.6981 38.4457 51.6373 39.384 52.8105 40.0879C53.9838 40.7705 55.2747 41.1123 56.6826 41.1123C58.1118 41.1122 59.4028 40.7705 60.5547 40.0879C61.7277 39.384 62.6553 38.4454 63.3379 37.2725C64.0419 36.0992 64.3945 34.7974 64.3945 33.3682V21.6562C64.3945 17.9804 67.374 15.0002 71.0498 15L71.082 47Z" fill="white"/>
<path d="M22.6396 14C24.9649 14 27.1414 14.4369 29.168 15.3115C31.2159 16.1862 33.008 17.4027 34.5439 18.96C36.0799 20.4959 37.2855 22.2771 38.1602 24.3037C39.0348 26.3304 39.4717 28.5067 39.4717 30.832C39.4717 33.1572 39.0347 35.3437 38.1602 37.3916C37.2855 39.4396 36.0799 41.2425 34.5439 42.7998C33.0079 44.3358 31.216 45.5413 29.168 46.416C27.1413 47.2907 24.965 47.7275 22.6396 47.7275C20.3785 47.7275 18.4158 47.2163 16.752 46.1924C15.0881 45.1471 13.7229 43.8135 12.6562 42.1924V55.3438C12.6562 59.0198 9.67601 62 6 62V35.3398C8.735 34.4162 10.7051 31.8319 10.7051 28.7852C10.7051 25.7383 8.73516 23.1531 6 22.2295V21.4883C6 17.8123 8.98024 14.832 12.6562 14.832V19.5361C13.7229 17.8935 15.088 16.5601 16.752 15.5361C18.4159 14.5122 20.3785 14.0001 22.6396 14ZM22.5762 20.4316C20.7202 20.4316 19.0877 20.9012 17.6797 21.8398C16.2718 22.7785 15.1731 24.0376 14.3838 25.6162C13.5945 27.1735 13.2002 28.9121 13.2002 30.832C13.2002 32.752 13.5945 34.5014 14.3838 36.0801C15.1731 37.6587 16.2717 38.9178 17.6797 39.8564C19.0877 40.7951 20.7202 41.2637 22.5762 41.2637C24.4108 41.2636 26.0959 40.805 27.6318 39.8877C29.1677 38.9491 30.3942 37.6908 31.3115 36.1123C32.2289 34.5336 32.6885 32.7734 32.6885 30.832C32.6885 28.9334 32.2289 27.1949 31.3115 25.6162C30.4155 24.0376 29.2 22.7785 27.6641 21.8398C26.1281 20.9012 24.4321 20.4317 22.5762 20.4316Z" fill="white"/>
<rect y="25" width="8" height="8" rx="4" fill="white"/>
</svg>
