<svg width="36" height="36" viewBox="0 0 36 36" fill="none" xmlns="http://www.w3.org/2000/svg">
<path d="M31.5 9.75C31.5 12.2353 29.4854 14.25 27 14.25C24.5146 14.25 22.5 12.2353 22.5 9.75C22.5 7.26473 24.5146 5.25 27 5.25C29.4854 5.25 31.5 7.26473 31.5 9.75Z" stroke="white" stroke-width="1.5"/>
<path d="M13.5 18C13.5 20.4854 11.4853 22.5 9 22.5C6.51473 22.5 4.5 20.4854 4.5 18C4.5 15.5146 6.51473 13.5 9 13.5C11.4853 13.5 13.5 15.5146 13.5 18Z" stroke="white" stroke-width="1.5"/>
<path d="M31.5 26.25C31.5 28.7354 29.4854 30.75 27 30.75C24.5146 30.75 22.5 28.7354 22.5 26.25C22.5 23.7646 24.5146 21.75 27 21.75C29.4854 21.75 31.5 23.7646 31.5 26.25Z" stroke="white" stroke-width="1.5"/>
<path d="M13.0928 16.1242L22.8427 11.625M13.0928 19.8749L22.8427 24.3742" stroke="white" stroke-width="1.5"/>
</svg>
