<svg width="24" height="25" viewBox="0 0 24 25" fill="none" xmlns="http://www.w3.org/2000/svg">
<path d="M3.5 10.5C3.5 6.72876 3.5 4.84315 4.7448 3.67157C5.98959 2.5 7.99306 2.5 12 2.5L12.7727 2.5C16.0339 2.5 17.6645 2.5 18.7969 3.29784C19.1214 3.52643 19.4094 3.79752 19.6523 4.10289C20.5 5.16867 20.5 6.70336 20.5 9.77273V12.3182C20.5 15.2814 20.5 16.7629 20.0311 17.9462C19.2772 19.8486 17.6829 21.3491 15.6616 22.0586C14.4044 22.5 12.8302 22.5 9.68182 22.5C7.88275 22.5 6.98322 22.5 6.26478 22.2478C5.10979 21.8424 4.19875 20.9849 3.76796 19.8979C3.5 19.2217 3.5 18.3751 3.5 16.6818L3.5 10.5Z" stroke="#60A9FE" stroke-width="1.5" stroke-linejoin="round"/>
<path d="M20.5 12.5C20.5 14.3409 19.0076 15.8333 17.1667 15.8333C16.5009 15.8333 15.716 15.7167 15.0686 15.8901C14.4935 16.0442 14.0442 16.4935 13.8901 17.0686C13.7167 17.716 13.8333 18.5009 13.8333 19.1667C13.8333 21.0076 12.3409 22.5 10.5 22.5" stroke="#60A9FE" stroke-width="1.5" stroke-linecap="round" stroke-linejoin="round"/>
<path d="M8 7.5L15 7.5" stroke="#60A9FE" stroke-width="1.5" stroke-linecap="round" stroke-linejoin="round"/>
<path d="M8 11.5H11" stroke="#60A9FE" stroke-width="1.5" stroke-linecap="round" stroke-linejoin="round"/>
</svg>
