<svg width="72" height="72" viewBox="0 0 72 72" fill="none" xmlns="http://www.w3.org/2000/svg">
<path d="M56.786 53.5122H23.6732C14.9511 53.5122 10.5901 53.5122 7.93191 50.1909C2.88648 43.8868 8.63538 27.1241 12.1179 20.8103C13.2985 27.9453 25.4525 27.7471 29.8797 26.7561C26.9301 20.8138 30.8679 18.8307 32.8366 17.8392L32.8401 17.8374C41.6206 28.2426 60.3942 33.903 64.9947 45.244C66.9821 50.143 61.3196 53.5122 56.786 53.5122Z" stroke="white" stroke-linecap="round" stroke-linejoin="round"/>
<path d="M5.9458 41.6206C18.327 45.8701 25.9563 47.1032 35.7393 44.0105C38.7036 43.0735 40.1859 42.6049 41.1096 42.6686C42.0335 42.7322 43.9184 43.611 47.6877 45.3688C52.3953 47.564 58.8548 48.8278 65.4038 45.6587" stroke="white" stroke-linejoin="round"/>
<path d="M40.1343 28.2426L44.5936 23.7832" stroke="white" stroke-linecap="round" stroke-linejoin="round"/>
<path d="M46.0801 32.702L50.5394 28.2427" stroke="white" stroke-linecap="round" stroke-linejoin="round"/>
</svg>
